<svg width="252" height="252" viewBox="0 0 252 252" fill="none" xmlns="http://www.w3.org/2000/svg">
<g filter="url(#filter0_d_198_1438)">
<path d="M246 159.512V177.165C246 186.915 238.59 194.818 229.451 194.818H103.264C100.979 194.818 99.1267 196.794 99.1267 199.231V228.734C99.1267 240.573 85.6703 246.459 77.8767 238.03L9.80313 164.394C2.07161 156.025 7.62589 141.859 18.6414 141.859H229.451C238.59 141.859 246 149.763 246 159.512Z" fill="#1289CF"/>
<path d="M242.235 79.6049C249.966 87.9736 244.412 102.14 233.396 102.14H22.5872C13.4474 102.14 6.03809 94.2366 6.03809 84.4871V66.834C6.03809 57.0845 13.4474 49.1809 22.5872 49.1809H148.774C151.059 49.1809 152.911 47.2049 152.911 44.7677V15.2649C152.911 3.42632 166.368 -2.45988 174.161 5.96947L242.235 79.6049Z" fill="#09A8B1"/>
<path d="M236.076 72.9409C70.7587 64.3841 21.6457 55.6088 6.71582 89.5017C5.75753 86.0378 6.03834 84.7017 6.03834 66.834C6.03834 57.0862 13.4492 49.1809 22.5874 49.1809H148.774C151.06 49.1809 152.911 47.206 152.911 44.7676V15.2649C152.911 3.42632 166.368 -2.45988 174.161 5.96947L236.076 72.9409Z" fill="#00AFB9"/>
<path d="M246 165.79V177.165C246 186.913 238.589 194.818 229.451 194.818H103.264C100.979 194.818 99.1272 196.793 99.1272 199.232V228.734C99.1272 240.573 85.6707 246.459 77.8771 238.03C15.4913 170.55 24.5834 180.386 19.6089 174.997C96.997 146.087 130.846 177.504 246 165.79Z" fill="#127AB7"/>
</g>
<defs>
<filter id="filter0_d_198_1438" x="0" y="0" width="252" height="251.999" filterUnits="userSpaceOnUse" color-interpolation-filters="sRGB">
<feFlood flood-opacity="0" result="BackgroundImageFix"/>
<feColorMatrix in="SourceAlpha" type="matrix" values="0 0 0 0 0 0 0 0 0 0 0 0 0 0 0 0 0 0 127 0" result="hardAlpha"/>
<feOffset dy="4"/>
<feGaussianBlur stdDeviation="3"/>
<feComposite in2="hardAlpha" operator="out"/>
<feColorMatrix type="matrix" values="0 0 0 0 0 0 0 0 0 0 0 0 0 0 0 0 0 0 0.09 0"/>
<feBlend mode="normal" in2="BackgroundImageFix" result="effect1_dropShadow_198_1438"/>
<feBlend mode="normal" in="SourceGraphic" in2="effect1_dropShadow_198_1438" result="shape"/>
</filter>
</defs>
</svg>
