<svg width="332" height="332" viewBox="0 0 332 332" fill="none" xmlns="http://www.w3.org/2000/svg">
<g filter="url(#filter0_d_198_1443)">
<path d="M326 212.017V235.554C326 248.553 316.121 259.092 303.935 259.092H135.686C132.639 259.092 130.169 261.726 130.169 264.976V304.313C130.169 320.098 112.227 327.946 101.836 316.707L11.0708 218.526C0.762135 207.368 8.16786 188.479 22.8552 188.479H303.935C316.121 188.479 326 199.017 326 212.017Z" fill="#1289CF"/>
<path d="M320.98 105.473C331.289 116.632 323.883 135.521 309.196 135.521H28.1163C15.9299 135.521 6.05078 124.982 6.05078 111.983V88.4456C6.05078 75.4462 15.9299 64.9081 28.1163 64.9081H196.366C199.412 64.9081 201.882 62.2733 201.882 59.0237V19.6866C201.882 3.90177 219.824 -3.94652 230.215 7.29264L320.98 105.473Z" fill="#09A8B1"/>
<path d="M312.768 96.588C92.3451 85.179 26.8609 73.4786 6.95443 118.669C5.6767 114.051 6.05112 112.269 6.05112 88.4456C6.05112 75.4484 15.9323 64.908 28.1166 64.908H196.366C199.414 64.908 201.882 62.2748 201.882 59.0237V19.6866C201.882 3.90177 219.824 -3.94652 230.216 7.29264L312.768 96.588Z" fill="#00AFB9"/>
<path d="M326.001 220.387V235.554C326.001 248.551 316.12 259.092 303.936 259.092H135.686C132.638 259.092 130.17 261.725 130.17 264.976V304.313C130.17 320.098 112.228 327.946 101.836 316.707C18.6551 226.734 30.778 239.849 24.1453 232.664C127.33 194.116 172.462 236.007 326.001 220.387Z" fill="#127AB7"/>
</g>
<defs>
<filter id="filter0_d_198_1443" x="0" y="0" width="332.001" height="332" filterUnits="userSpaceOnUse" color-interpolation-filters="sRGB">
<feFlood flood-opacity="0" result="BackgroundImageFix"/>
<feColorMatrix in="SourceAlpha" type="matrix" values="0 0 0 0 0 0 0 0 0 0 0 0 0 0 0 0 0 0 127 0" result="hardAlpha"/>
<feOffset dy="4"/>
<feGaussianBlur stdDeviation="3"/>
<feComposite in2="hardAlpha" operator="out"/>
<feColorMatrix type="matrix" values="0 0 0 0 0 0 0 0 0 0 0 0 0 0 0 0 0 0 0.09 0"/>
<feBlend mode="normal" in2="BackgroundImageFix" result="effect1_dropShadow_198_1443"/>
<feBlend mode="normal" in="SourceGraphic" in2="effect1_dropShadow_198_1443" result="shape"/>
</filter>
</defs>
</svg>
