<svg width="152" height="152" viewBox="0 0 152 152" fill="none" xmlns="http://www.w3.org/2000/svg">
<g filter="url(#filter0_d_198_1432)">
<path d="M146 93.8821V104.18C146 109.867 141.678 114.477 136.346 114.477H62.7374C61.4046 114.477 60.324 115.63 60.324 117.052V134.262C60.324 141.168 52.4744 144.601 47.9281 139.684L8.21855 96.7301C3.7085 91.8483 6.9485 83.5845 13.3742 83.5845H136.346C141.678 83.5845 146 88.1949 146 93.8821Z" fill="#1289CF"/>
<path d="M143.804 47.2696C148.314 52.1513 145.074 60.4151 138.648 60.4151H15.6758C10.3443 60.4151 6.02222 55.8047 6.02222 50.1175V39.8199C6.02222 34.1327 10.3443 29.5222 15.6758 29.5222H89.2847C90.6175 29.5222 91.6982 28.3695 91.6982 26.9478V9.73788C91.6982 2.83202 99.5478 -0.601597 104.094 4.31553L143.804 47.2696Z" fill="#09A8B1"/>
<path d="M140.211 43.3822C43.7759 38.3907 15.1266 33.2718 6.41756 53.0427C5.85856 51.0221 6.02237 50.2427 6.02237 39.8199C6.02237 34.1336 10.3454 29.5222 15.676 29.5222H89.2849C90.6183 29.5222 91.6983 28.3702 91.6983 26.9478V9.73787C91.6983 2.83202 99.5479 -0.601597 104.094 4.31553L140.211 43.3822Z" fill="#00AFB9"/>
<path d="M146 97.5443V104.18C146 109.866 141.677 114.477 136.346 114.477H62.7376C61.4042 114.477 60.3242 115.63 60.3242 117.052V134.262C60.3242 141.168 52.4745 144.601 47.9283 139.684C11.5365 100.321 16.8403 106.059 13.9385 102.915C59.0816 86.0508 78.8268 104.378 146 97.5443Z" fill="#127AB7"/>
</g>
<defs>
<filter id="filter0_d_198_1432" x="0" y="0" width="152" height="152" filterUnits="userSpaceOnUse" color-interpolation-filters="sRGB">
<feFlood flood-opacity="0" result="BackgroundImageFix"/>
<feColorMatrix in="SourceAlpha" type="matrix" values="0 0 0 0 0 0 0 0 0 0 0 0 0 0 0 0 0 0 127 0" result="hardAlpha"/>
<feOffset dy="4"/>
<feGaussianBlur stdDeviation="3"/>
<feComposite in2="hardAlpha" operator="out"/>
<feColorMatrix type="matrix" values="0 0 0 0 0 0 0 0 0 0 0 0 0 0 0 0 0 0 0.09 0"/>
<feBlend mode="normal" in2="BackgroundImageFix" result="effect1_dropShadow_198_1432"/>
<feBlend mode="normal" in="SourceGraphic" in2="effect1_dropShadow_198_1432" result="shape"/>
</filter>
</defs>
</svg>
